{"title":"Stolen Home Movies 5 (Young Asian Couple)","uid":10824761,"size":118526552,"categoryP":"porn","categoryS":"movie_clips","magnet":"?xt=urn:btih:d7ae1b9b2655c73c38032ea996a0ceaf2c562fad&amp;dn=Stolen+Home+Movies+5+%28Young+Asian+Couple%29&amp;tr=udp%3A%2F%2Ftracker.openbittorrent.com%3A80&amp;tr=udp%3A%2F%2Fopen.demonii.com%3A1337&amp;tr=udp%3A%2F%2Ftracker.coppersurfer.tk%3A6969&amp;tr=udp%3A%2F%2Fexodus.desync.com%3A6969","seeders":2,"leechers":2,"uploader":"ThousandPeers","files":-1,"time":1408571587,"description":"Format                                   : Windows Media\nFile size                                : 113 MiB\nDuration                                 : 44mn 36s\nOverall bit rate mode                    : Constant\nOverall bit rate                         : 354 Kbps\nMaximum Overall bit rate                 : 365 Kbps\nEncoded date                             : UTC 2005-10-18 00:59:03.154\n\nVideo\nID                                       : 2\nFormat                                   : WMV1\nCodec ID                                 : WMV1\nCodec ID/Info                            : Windows Media Video 7\nDescription of the codec                 : Windows Media Video V7\nDuration                                 : 44mn 36s\nBit rate mode                            : Constant\nBit rate                                 : 314 Kbps\nWidth                                    : 320 pixels\nHeight                                   : 240 pixels\nDisplay aspect ratio                     : 4:3\nFrame rate                               : 30.000 fps\nBit depth                                : 8 bits\nBits/(Pixel*Frame)                       : 0.136\nStream size                              : 100 MiB (89%)\n\nAudio\nID                                       : 1\nFormat                                   : WMA\nFormat version                           : Version 2\nCodec ID                                 : 161\nCodec ID/Info                            : Windows Media Audio\nDescription of the codec                 : Windows Media Audio 9.1 -  32 kbps, 32 kHz, stereo (A/V) 1-pass CBR\nDuration                                 : 44mn 36s\nBit rate mode                            : Constant\nBit rate                                 : 32.0 Kbps\nChannel(s)                               : 2 channels\nSampling rate                            : 32.0 KHz\nBit depth                                : 16 bits\nStream size                              : 10.2 MiB (9%)","torrent":{"xt":"urn:btih:d7ae1b9b2655c73c38032ea996a0ceaf2c562fad","amp;dn":"Stolen+Home+Movies+5+%28Young+Asian+Couple%29","amp;tr":["udp%3A%2F%2Ftracker.openbittorrent.com%3A80","udp%3A%2F%2Fopen.demonii.com%3A1337","udp%3A%2F%2Ftracker.coppersurfer.tk%3A6969","udp%3A%2F%2Fexodus.desync.com%3A6969"],"infoHash":"d7ae1b9b2655c73c38032ea996a0ceaf2c562fad","infoHashBuffer":{"type":"Buffer","data":[215,174,27,155,38,85,199,60,56,3,46,169,150,160,206,175,44,86,47,173]},"announce":[],"urlList":[]}}